HIERARCHY
ROOT Hips
{
  OFFSET 5.72205e-005 65.662 3.42586
  CHANNELS 6 Xposition Yposition Zposition Zrotation Xrotation Yrotation
  JOINT Chest
  {
    OFFSET 0 8.7983 -4.7612
    CHANNELS 6 Xposition Yposition Zposition Zrotation Xrotation Yrotation
    JOINT Chest2
    {
      OFFSET 0 8.0291 0.4195
      CHANNELS 6 Xposition Yposition Zposition Zrotation Xrotation Yrotation
      JOINT Chest3
      {
        OFFSET 0 9.9351 -2.2114
        CHANNELS 6 Xposition Yposition Zposition Zrotation Xrotation Yrotation
        JOINT Neck
        {
          OFFSET 0 22.3885 -0.4656
          CHANNELS 6 Xposition Yposition Zposition Zrotation Xrotation Yrotation
          JOINT Head
          {
            OFFSET -0.0001 12.643 3.4389
            CHANNELS 6 Xposition Yposition Zposition Zrotation Xrotation Yrotation
            End Site
            {
              OFFSET 0.0001 17.6655 0.5274
            }
          }
        }
        JOINT LeftCollar
        {
          OFFSET 2.2603 21.606 7.4023
          CHANNELS 6 Xposition Yposition Zposition Zrotation Xrotation Yrotation
          JOINT LeftShoulder
          {
            OFFSET 13.5163 -1.1332 -5.0146
            CHANNELS 6 Xposition Yposition Zposition Zrotation Xrotation Yrotation
            JOINT LeftElbow
            {
              OFFSET -0.0995 -28.05 -0.2431
              CHANNELS 6 Xposition Yposition Zposition Zrotation Xrotation Yrotation
              JOINT LeftWrist
              {
                OFFSET 0.0679 -23.3996 -0.1402
                CHANNELS 6 Xposition Yposition Zposition Zrotation Xrotation Yrotation
                JOINT LeftFinger1
                {
                  OFFSET 0.7932 -9.069 2.5189
                  CHANNELS 6 Xposition Yposition Zposition Zrotation Xrotation Yrotation
                  JOINT LeftFinger11
                  {
                    OFFSET -0.8272 -3.3923 0.5977
                    CHANNELS 6 Xposition Yposition Zposition Zrotation Xrotation Yrotation
                    JOINT LeftFinger12
                    {
                      OFFSET -0.5649 -2.3158 0.4082
                      CHANNELS 6 Xposition Yposition Zposition Zrotation Xrotation Yrotation
                      End Site
                      {
                        OFFSET -0.4919 -1.6479 0.2673
                      }
                    }
                  }
                }
                JOINT LeftFinger2
                {
                  OFFSET 0.9159 -9.2044 0.2193
                  CHANNELS 6 Xposition Yposition Zposition Zrotation Xrotation Yrotation
                  JOINT LeftFinger21
                  {
                    OFFSET 0.0117 -4.1944 -0.0248
                    CHANNELS 6 Xposition Yposition Zposition Zrotation Xrotation Yrotation
                    JOINT LeftFinger22
                    {
                      OFFSET 0.0071 -2.3249 -0.0142
                      CHANNELS 6 Xposition Yposition Zposition Zrotation Xrotation Yrotation
                      End Site
                      {
                        OFFSET -0.1475 -2.0882 0.0028
                      }
                    }
                  }
                }
                JOINT LeftFinger3
                {
                  OFFSET 0.6113 -8.7231 -2.0637
                  CHANNELS 6 Xposition Yposition Zposition Zrotation Xrotation Yrotation
                  JOINT LeftFinger31
                  {
                    OFFSET -0.1927 -3.8059 -0.2383
                    CHANNELS 6 Xposition Yposition Zposition Zrotation Xrotation Yrotation
                    JOINT LeftFinger32
                    {
                      OFFSET -0.1091 -2.1688 -0.1362
                      CHANNELS 6 Xposition Yposition Zposition Zrotation Xrotation Yrotation
                      End Site
                      {
                        OFFSET -0.2358 -1.9176 -0.0906
                      }
                    }
                  }
                }
                JOINT LeftFinger4
                {
                  OFFSET -0.6151 -8.0947 -3.5641
                  CHANNELS 6 Xposition Yposition Zposition Zrotation Xrotation Yrotation
                  JOINT LeftFinger41
                  {
                    OFFSET -0.4882 -2.341 -0.6462
                    CHANNELS 6 Xposition Yposition Zposition Zrotation Xrotation Yrotation
                    JOINT LeftFinger42
                    {
                      OFFSET -0.3575 -1.7167 -0.4742
                      CHANNELS 6 Xposition Yposition Zposition Zrotation Xrotation Yrotation
                      End Site
                      {
                        OFFSET -0.4187 -1.5237 -0.3496
                      }
                    }
                  }
                }
                JOINT LeftFinger0
                {
                  OFFSET -1.42 -1.8761 1.4223
                  CHANNELS 6 Xposition Yposition Zposition Zrotation Xrotation Yrotation
                  JOINT LeftFinger01
                  {
                    OFFSET -1.1471 -3.4929 2.6334
                    CHANNELS 6 Xposition Yposition Zposition Zrotation Xrotation Yrotation
                    JOINT LeftFinger02
                    {
                      OFFSET -0.823 -2.3 1.6571
                      CHANNELS 6 Xposition Yposition Zposition Zrotation Xrotation Yrotation
                      End Site
                      {
                        OFFSET -0.5822 -1.6914 1.1582
                      }
                    }
                  }
                }
              }
            }
          }
        }
        JOINT RightCollar
        {
          OFFSET -2.2603 21.606 7.4023
          CHANNELS 6 Xposition Yposition Zposition Zrotation Xrotation Yrotation
          JOINT RightShoulder
          {
            OFFSET -13.5187 -1.1334 -5.0155
            CHANNELS 6 Xposition Yposition Zposition Zrotation Xrotation Yrotation
            JOINT RightElbow
            {
              OFFSET 0.0994 -28.0499 -0.2431
              CHANNELS 6 Xposition Yposition Zposition Zrotation Xrotation Yrotation
              JOINT RightWrist
              {
                OFFSET -0.0679 -23.3996 -0.1402
                CHANNELS 6 Xposition Yposition Zposition Zrotation Xrotation Yrotation
                JOINT RightFinger1
                {
                  OFFSET -0.7932 -9.0691 2.5189
                  CHANNELS 6 Xposition Yposition Zposition Zrotation Xrotation Yrotation
                  JOINT RightFinger11
                  {
                    OFFSET 0.8272 -3.3923 0.5977
                    CHANNELS 6 Xposition Yposition Zposition Zrotation Xrotation Yrotation
                    JOINT RightFinger12
                    {
                      OFFSET 0.565 -2.3158 0.4082
                      CHANNELS 6 Xposition Yposition Zposition Zrotation Xrotation Yrotation
                      End Site
                      {
                        OFFSET 0.4919 -1.6479 0.2673
                      }
                    }
                  }
                }
                JOINT RightFinger2
                {
                  OFFSET -0.916 -9.2044 0.2193
                  CHANNELS 6 Xposition Yposition Zposition Zrotation Xrotation Yrotation
                  JOINT RightFinger21
                  {
                    OFFSET -0.0117 -4.1944 -0.0248
                    CHANNELS 6 Xposition Yposition Zposition Zrotation Xrotation Yrotation
                    JOINT RightFinger22
                    {
                      OFFSET -0.0071 -2.3249 -0.0142
                      CHANNELS 6 Xposition Yposition Zposition Zrotation Xrotation Yrotation
                      End Site
                      {
                        OFFSET 0.1475 -2.0882 0.0028
                      }
                    }
                  }
                }
                JOINT RightFinger3
                {
                  OFFSET -0.6113 -8.7231 -2.0637
                  CHANNELS 6 Xposition Yposition Zposition Zrotation Xrotation Yrotation
                  JOINT RightFinger31
                  {
                    OFFSET 0.1927 -3.8059 -0.2383
                    CHANNELS 6 Xposition Yposition Zposition Zrotation Xrotation Yrotation
                    JOINT RightFinger32
                    {
                      OFFSET 0.1091 -2.1688 -0.1362
                      CHANNELS 6 Xposition Yposition Zposition Zrotation Xrotation Yrotation
                      End Site
                      {
                        OFFSET 0.2358 -1.9176 -0.0906
                      }
                    }
                  }
                }
                JOINT RightFinger4
                {
                  OFFSET 0.6151 -8.0947 -3.564
                  CHANNELS 6 Xposition Yposition Zposition Zrotation Xrotation Yrotation
                  JOINT RightFinger41
                  {
                    OFFSET 0.4882 -2.341 -0.6462
                    CHANNELS 6 Xposition Yposition Zposition Zrotation Xrotation Yrotation
                    JOINT RightFinger42
                    {
                      OFFSET 0.3574 -1.7166 -0.4742
                      CHANNELS 6 Xposition Yposition Zposition Zrotation Xrotation Yrotation
                      End Site
                      {
                        OFFSET 0.4187 -1.5237 -0.3496
                      }
                    }
                  }
                }
                JOINT RightFinger0
                {
                  OFFSET 1.4199 -1.8761 1.4221
                  CHANNELS 6 Xposition Yposition Zposition Zrotation Xrotation Yrotation
                  JOINT RightFinger01
                  {
                    OFFSET 1.1472 -3.4929 2.6336
                    CHANNELS 6 Xposition Yposition Zposition Zrotation Xrotation Yrotation
                    JOINT RightFinger02
                    {
                      OFFSET 0.8229 -2.3 1.6571
                      CHANNELS 6 Xposition Yposition Zposition Zrotation Xrotation Yrotation
                      End Site
                      {
                        OFFSET 0.5822 -1.6914 1.1582
                      }
                    }
                  }
                }
              }
            }
          }
        }
      }
    }
  }
  JOINT RightHip
  {
    OFFSET -9.412 3.9771 -0.7758
    CHANNELS 6 Xposition Yposition Zposition Zrotation Xrotation Yrotation
    JOINT RightKnee
    {
      OFFSET -0.7531 -40.938 0
      CHANNELS 6 Xposition Yposition Zposition Zrotation Xrotation Yrotation
      JOINT RightAnkle
      {
        OFFSET 0 -40.1986 0
        CHANNELS 6 Xposition Yposition Zposition Zrotation Xrotation Yrotation
        JOINT RightToe
        {
          OFFSET 0 -4.4182 9.239
          CHANNELS 6 Xposition Yposition Zposition Zrotation Xrotation Yrotation
          End Site
          {
            OFFSET 0 0 6.1981
          }
        }
      }
    }
  }
  JOINT LeftHip
  {
    OFFSET 9.4119 3.9773 -0.7758
    CHANNELS 6 Xposition Yposition Zposition Zrotation Xrotation Yrotation
    JOINT LeftKnee
    {
      OFFSET 0.7532 -40.9383 0
      CHANNELS 6 Xposition Yposition Zposition Zrotation Xrotation Yrotation
      JOINT LeftAnkle
      {
        OFFSET 0 -40.1986 0
        CHANNELS 6 Xposition Yposition Zposition Zrotation Xrotation Yrotation
        JOINT LeftToe
        {
          OFFSET 0 -4.4182 9.239
          CHANNELS 6 Xposition Yposition Zposition Zrotation Xrotation Yrotation
          End Site
          {
            OFFSET 0 0 6.1981
          }
        }
      }
    }
  }
}
MOTION
Frames:	4
Frame Time:	0.0333333
5.72205e-005 65.662 3.42586 0 0 -0 0 8.7983 -4.7612 0 0 -0 0 8.0291 0.4195 0 0 -0 0 9.9351 -2.2114 0 0 -0 0 22.3885 -0.4656 0 0 -0 -0.0001 12.643 3.4389 0 0 -0 2.2603 21.606 7.4023 0 0 -12.5014 13.5163 -1.1332 -5.0146 88.1196 14.2451 10.6914 -0.0995 -28.05 -0.2431 -0.00160068 -0.00239207 0.000740045 0.0679 -23.3996 -0.1402 -8.4365e-005 7.00714e-005 -9.52055e-007 0.7932 -9.069 2.5189 9.93923e-017 -1.98785e-016 -1.59028e-015 -0.8272 -3.3923 0.5977 9.93923e-017 -5.96354e-016 -1.59028e-015 -0.5649 -2.3158 0.4082 -9.93923e-017 -5.96354e-016 -1.59028e-015 0.9159 -9.2044 0.2193 9.93923e-017 -1.98785e-016 -1.59028e-015 0.0117 -4.1944 -0.0248 -0.0128176 0.00232552 8.52707e-005 0.0071 -2.3249 -0.0142 9.93923e-017 5.96354e-016 -0 0.6113 -8.7231 -2.0637 9.93923e-017 -1.98785e-016 -1.59028e-015 -0.1927 -3.8059 -0.2383 -0.0160551 0.00299681 0.000857156 -0.1091 -2.1688 -0.1362 -2.48481e-016 0 3.18055e-015 -0.6151 -8.0947 -3.5641 9.93923e-017 -1.98785e-016 -1.59028e-015 -0.4882 -2.341 -0.6462 -0.0125865 0.0031206 0.00282719 -0.3575 -1.7167 -0.4742 0 1.98785e-016 -0 -1.42 -1.8761 1.4223 9.93923e-017 -1.98785e-016 -1.59028e-015 -1.1471 -3.4929 2.6334 9.93923e-017 -5.96354e-016 -1.59028e-015 -0.823 -2.3 1.6571 -9.93923e-017 -5.96354e-016 -1.59028e-015 -2.2603 21.606 7.4023 -0.865644 0.16582 7.03859 -13.5187 -1.1334 -5.0155 -88.0329 10.2057 -10.5567 0.0994 -28.0499 -0.2431 0.0015593 -0.00248883 -0.000788628 -0.0679 -23.3996 -0.1402 7.87605e-005 4.10553e-005 1.24965e-005 -0.7932 -9.0691 2.5189 -3.97569e-016 -7.95139e-016 3.18055e-015 0.8272 -3.3923 0.5977 -1.98785e-016 -3.97569e-016 3.18055e-015 0.565 -2.3158 0.4082 -1.98785e-016 0 3.18055e-015 -0.916 -9.2044 0.2193 -3.97569e-016 -7.95139e-016 3.18055e-015 -0.0117 -4.1944 -0.0248 0.0129473 0.00231697 -8.70038e-005 -0.0071 -2.3249 -0.0142 9.93923e-017 -7.95139e-016 1.59028e-015 -0.6113 -8.7231 -2.0637 -3.97569e-016 -7.95139e-016 3.18055e-015 0.1927 -3.8059 -0.2383 0.0163314 0.00303369 -0.000872333 0.1091 -2.1688 -0.1362 3.97569e-016 7.95139e-016 -3.18055e-015 0.6151 -8.0947 -3.564 -3.97569e-016 -7.95139e-016 3.18055e-015 0.4882 -2.341 -0.6462 0.0145763 0.00367772 -0.00326275 0.3574 -1.7166 -0.4742 9.93923e-017 -3.97569e-016 -0 1.4199 -1.8761 1.4221 -3.97569e-016 -7.95139e-016 3.18055e-015 1.1472 -3.4929 2.6336 -1.98785e-016 -3.97569e-016 3.18055e-015 0.8229 -2.3 1.6571 -1.98785e-016 0 3.18055e-015 -9.412 3.9771 -0.7758 3.42482 1.32465 -0.0626183 -0.7531 -40.938 0 0.000117508 0.717283 0.000978199 0 -40.1986 0 -3.4257 -2.04197 -0.0604716 8.88178e-016 -4.4182 9.239 6.47761e-025 0 -0 9.4119 3.9773 -0.7758 -3.42483 1.34017 0.0627307 0.7532 -40.9383 -2.22045e-016 -0.000193936 0.682302 -0.0013703 -8.88179e-016 -40.1986 0 3.42574 -2.02253 0.0595886 -8.88178e-016 -4.4182 9.239 -8.45714e-024 0 -7.40531e-025 
-0.473415 1.16846 10.11 0.645982 -48.0242 -1.50211 0 8.7983 -4.7612 -1.98654 11.2844 -0.600731 0 8.0291 0.4195 -3.96902 22.5828 -0.817453 2.22045e-016 9.9351 -2.2114 -3.96902 22.5828 -0.817454 1.33227e-015 22.3885 -0.4656 2.0091 5.99539 -0.212007 -0.0001 12.643 3.4389 10.9491 -23.9407 13.4889 2.2603 21.606 7.4023 -13.2751 -6.25069 -0.0116326 13.5163 -1.1332 -5.0146 28.5283 6.16873 25.3957 -0.0995 -28.05 -0.2431 6.44621 -18.816 24.1386 0.0679 -23.3996 -0.1402 34.4614 4.89008 -56.7771 0.7932 -9.069 2.5189 1.19271e-014 -3.18055e-015 -0 -0.8272 -3.3923 0.5977 1.27222e-014 -3.18055e-015 -1.59028e-015 -0.5649 -2.3158 0.4082 6.36111e-015 -6.36111e-015 1.59028e-015 0.9159 -9.2044 0.2193 1.19271e-014 -3.18055e-015 -0 0.0117 -4.1944 -0.0248 -0.0128055 0.00231918 8.73872e-005 0.0071 -2.3249 -0.0142 1.19271e-014 6.36111e-015 -4.77083e-015 0.6113 -8.7231 -2.0637 1.19271e-014 -3.18055e-015 -0 -0.1927 -3.8059 -0.2383 -0.0160338 0.00299476 0.000854222 -0.1091 -2.1688 -0.1362 3.18055e-015 0 -1.59028e-015 -0.6151 -8.0947 -3.5641 1.19271e-014 -3.18055e-015 -0 -0.4882 -2.341 -0.6462 -0.0126343 0.00313446 0.00283629 -0.3575 -1.7167 -0.4742 4.09965e-006 -2.06674e-006 4.30219e-006 -1.42 -1.8761 1.4223 1.19271e-014 -3.18055e-015 -0 -1.1471 -3.4929 2.6334 1.27222e-014 -3.18055e-015 -1.59028e-015 -0.823 -2.3 1.6571 6.36111e-015 -6.36111e-015 1.59028e-015 -2.2603 21.606 7.4023 -3.80654 -8.15772 35.9265 -13.5187 -1.1334 -5.0155 -95.7309 -32.6638 -32.7724 0.0994 -28.0499 -0.2431 15.7526 -15.713 -57.4125 -0.0679 -23.3996 -0.1402 23.7118 -12.5796 -18.073 -0.7932 -9.0691 2.5189 -7.36621e-006 -2.58732e-006 -7.07923e-006 0.8272 -3.3923 0.5977 -8.44941e-006 6.28374e-006 2.46904e-006 0.565 -2.3158 0.4082 -5.44794e-006 -1.56015e-006 -4.67987e-006 -0.916 -9.2044 0.2193 -7.36621e-006 -2.58732e-006 -7.07923e-006 -0.0117 -4.1944 -0.0248 0.0129625 0.00233206 -8.28745e-005 -0.0071 -2.3249 -0.0142 -6.44518e-006 -1.64032e-006 4.7504e-007 -0.6113 -8.7231 -2.0637 -7.36621e-006 -2.58732e-006 -7.07923e-006 0.1927 -3.8059 -0.2383 0.016339 0.00304069 -0.000865832 0.1091 -2.1688 -0.1362 -8.26086e-006 -2.16221e-006 -1.08513e-006 0.6151 -8.0947 -3.564 -7.36621e-006 -2.58732e-006 -7.07923e-006 0.4882 -2.341 -0.6462 0.0145784 0.00367587 -0.00326 0.3574 -1.7166 -0.4742 -9.70899e-006 9.88082e-006 1.36722e-006 1.4199 -1.8761 1.4221 -7.36621e-006 -2.58732e-006 -7.07923e-006 1.1472 -3.4929 2.6336 -8.44941e-006 6.28374e-006 2.46904e-006 0.8229 -2.3 1.6571 -5.44794e-006 -1.56015e-006 -4.67987e-006 -9.412 3.9771 -0.7758 -89.1443 -74.4362 -101.311 -0.7531 -40.938 1.33227e-014 -156.917 71.6731 156.013 0 -40.1986 -7.10543e-015 20.3253 25.8459 -12.9236 1.77636e-015 -4.4182 9.239 9.98674e-006 -1.85368e-007 -2.16891e-006 9.4119 3.9773 -0.7758 45.7207 -23.5562 114.644 0.7532 -40.9383 -3.55271e-015 -157.38 77.4415 155.323 -4.44089e-016 -40.1986 0 -53.9865 17.1809 53.1761 3.55271e-015 -4.4182 9.239 2.78299e-015 3.11049e-006 3.18055e-015 
-0.473415 1.16846 10.11 0.645982 -48.0242 -1.50211 0 8.7983 -4.7612 -1.98654 11.2844 -0.600731 0 8.0291 0.4195 -3.96902 22.5828 -0.817453 4.44089e-016 9.9351 -2.2114 -3.96902 22.5828 -0.817454 8.88178e-016 22.3885 -0.4656 2.07337 6.04848 -0.285968 -0.0001 12.643 3.4389 10.9491 -23.9407 13.4889 2.2603 21.606 7.4023 -13.2751 -6.25069 -0.0116326 13.5163 -1.1332 -5.0146 28.5283 6.16873 25.3957 -0.0995 -28.05 -0.2431 6.44621 -18.816 24.1386 0.0679 -23.3996 -0.1402 34.4614 4.89008 -56.7771 0.7932 -9.069 2.5189 -5.19651e-006 -1.42081e-006 -2.2404e-006 -0.8272 -3.3923 0.5977 7.95139e-016 1.73042e-006 -1.59028e-015 -0.5649 -2.3158 0.4082 -1.03368e-014 6.36111e-015 -3.18055e-015 0.9159 -9.2044 0.2193 -5.19651e-006 -1.42081e-006 -2.2404e-006 0.0117 -4.1944 -0.0248 -0.0128346 0.00233806 8.45908e-005 0.0071 -2.3249 -0.0142 3.18055e-015 -3.18055e-015 4.77083e-015 0.6113 -8.7231 -2.0637 -5.19651e-006 -1.42081e-006 -2.2404e-006 -0.1927 -3.8059 -0.2383 -0.0160428 0.00300096 0.000858998 -0.1091 -2.1688 -0.1362 -7.95139e-016 -3.18055e-015 1.59028e-015 -0.6151 -8.0947 -3.5641 -5.19651e-006 -1.42081e-006 -2.2404e-006 -0.4882 -2.341 -0.6462 -0.0126313 0.00313316 0.00284241 -0.3575 -1.7167 -0.4742 -1.11319e-014 0 4.77083e-015 -1.42 -1.8761 1.4223 -5.19651e-006 -1.42081e-006 -2.2404e-006 -1.1471 -3.4929 2.6334 7.95139e-016 1.73042e-006 -1.59028e-015 -0.823 -2.3 1.6571 -1.03368e-014 6.36111e-015 -3.18055e-015 -2.2603 21.606 7.4023 -3.80654 -8.15772 35.9265 -13.5187 -1.1334 -5.0155 -95.7309 -32.6638 -32.7724 0.0994 -28.0499 -0.2431 15.6601 -15.8731 -56.9957 -0.0679 -23.3996 -0.1402 23.2227 -12.7962 -18.281 -0.7932 -9.0691 2.5189 -0 0 1.19271e-015 0.8272 -3.3923 0.5977 -0 0 1.39149e-015 0.565 -2.3158 0.4082 -0 0 1.39149e-015 -0.916 -9.2044 0.2193 -0 0 1.19271e-015 -0.0117 -4.1944 -0.0248 0.0129378 0.002306 -8.69055e-005 -0.0071 -2.3249 -0.0142 2.75869e-033 -7.95139e-016 1.98785e-016 -0.6113 -8.7231 -2.0637 -0 0 1.19271e-015 0.1927 -3.8059 -0.2383 0.0162941 0.00303274 -0.00087239 0.1091 -2.1688 -0.1362 3.84156e-006 -1.02849e-005 -4.18065e-006 0.6151 -8.0947 -3.564 -0 0 1.19271e-015 0.4882 -2.341 -0.6462 0.0145523 0.00367908 -0.00326422 0.3574 -1.7166 -0.4742 1.46218e-006 -1.10299e-005 2.79507e-006 1.4199 -1.8761 1.4221 -0 0 1.19271e-015 1.1472 -3.4929 2.6336 -0 0 1.39149e-015 0.8229 -2.3 1.6571 -0 0 1.39149e-015 -9.412 3.9771 -0.7758 -89.1443 -74.4362 -101.311 -0.7531 -40.938 1.33227e-014 -156.917 71.6731 156.013 0 -40.1986 -1.42109e-014 20.3253 25.8459 -12.9236 0 -4.4182 9.239 9.98674e-006 -1.85368e-007 -2.16891e-006 9.4119 3.9773 -0.7758 45.7207 -23.5564 114.644 0.7532 -40.9383 -1.77636e-015 -157.38 77.4415 155.323 4.44089e-016 -40.1986 -7.10543e-015 -53.9865 17.1809 53.1761 -3.55271e-015 -4.4182 9.239 -5.96354e-015 9.49147e-007 3.18055e-015 
-0.473415 1.16846 10.11 0.645982 -48.0242 -1.50211 0 8.7983 -4.7612 -1.98654 11.2844 -0.600731 0 8.0291 0.4195 -3.96902 22.5828 -0.817453 2.22045e-016 9.9351 -2.2114 -3.96902 22.5828 -0.817454 1.33227e-015 22.3885 -0.4656 2.13772 6.10149 -0.360008 -0.0001 12.643 3.4389 10.9491 -23.9407 13.4889 2.2603 21.606 7.4023 -13.2751 -6.25069 -0.0116326 13.5163 -1.1332 -5.0146 28.5283 6.16873 25.3957 -0.0995 -28.05 -0.2431 6.44621 -18.816 24.1386 0.0679 -23.3996 -0.1402 34.4614 4.89008 -56.7771 0.7932 -9.069 2.5189 -1.59028e-015 0 -7.95139e-015 -0.8272 -3.3923 0.5977 7.15625e-015 -1.73043e-006 -4.77083e-015 -0.5649 -2.3158 0.4082 -3.18055e-015 -6.36111e-015 3.18055e-015 0.9159 -9.2044 0.2193 -1.59028e-015 0 -7.95139e-015 0.0117 -4.1944 -0.0248 -0.0128637 0.00233691 8.22776e-005 0.0071 -2.3249 -0.0142 -2.84064e-006 -1.14358e-008 1.94926e-007 0.6113 -8.7231 -2.0637 -1.59028e-015 0 -7.95139e-015 -0.1927 -3.8059 -0.2383 -0.0160474 0.00299398 0.000856499 -0.1091 -2.1688 -0.1362 -4.77083e-015 -3.18055e-015 -0 -0.6151 -8.0947 -3.5641 -1.59028e-015 0 -7.95139e-015 -0.4882 -2.341 -0.6462 -0.0126433 0.00312244 0.00284131 -0.3575 -1.7167 -0.4742 -1.59028e-015 0 -1.59028e-015 -1.42 -1.8761 1.4223 -1.59028e-015 0 -7.95139e-015 -1.1471 -3.4929 2.6334 7.15625e-015 -1.73043e-006 -4.77083e-015 -0.823 -2.3 1.6571 -3.18055e-015 -6.36111e-015 3.18055e-015 -2.2603 21.606 7.4023 -3.80654 -8.15772 35.9265 -13.5187 -1.1334 -5.0155 -95.7309 -32.6638 -32.7724 0.0994 -28.0499 -0.2431 15.5686 -16.0341 -56.578 -0.0679 -23.3996 -0.1402 22.7313 -13.0115 -18.4915 -0.7932 -9.0691 2.5189 3.18055e-015 -7.95139e-016 -5.96354e-016 0.8272 -3.3923 0.5977 -5.51738e-033 1.59028e-015 1.98785e-016 0.565 -2.3158 0.4082 -0 0 1.98785e-016 -0.916 -9.2044 0.2193 3.18055e-015 -7.95139e-016 -5.96354e-016 -0.0117 -4.1944 -0.0248 0.0129114 0.00231049 -8.9626e-005 -0.0071 -2.3249 -0.0142 -6.36111e-015 1.59028e-015 4.57205e-015 -0.6113 -8.7231 -2.0637 3.18055e-015 -7.95139e-016 -5.96354e-016 0.1927 -3.8059 -0.2383 0.0163088 0.00302689 -0.000876352 0.1091 -2.1688 -0.1362 -8.27607e-033 -7.95139e-016 -5.96354e-016 0.6151 -8.0947 -3.564 3.18055e-015 -7.95139e-016 -5.96354e-016 0.4882 -2.341 -0.6462 0.0145448 0.00366832 -0.00325066 0.3574 -1.7166 -0.4742 0 0 -1.59028e-015 1.4199 -1.8761 1.4221 3.18055e-015 -7.95139e-016 -5.96354e-016 1.1472 -3.4929 2.6336 -5.51738e-033 1.59028e-015 1.98785e-016 0.8229 -2.3 1.6571 -0 0 1.98785e-016 -9.412 3.9771 -0.7758 -89.1444 -74.4362 -101.311 -0.7531 -40.938 6.21725e-015 -156.917 71.6731 156.013 -1.77636e-015 -40.1986 -7.10543e-015 20.3253 25.8459 -12.9236 0 -4.4182 9.239 -8.75356e-006 -4.75668e-007 -2.33748e-006 9.4119 3.9773 -0.7758 45.7207 -23.5562 114.644 0.7532 -40.9383 -3.55271e-015 -157.38 77.4414 155.323 0 -40.1986 0 -53.9865 17.1809 53.1761 -3.55271e-015 -4.4182 9.239 -4.99864e-006 2.17846e-006 -2.97877e-006 
